<<<<<<< HEAD
<mxfile host="Electron" modified="2021-09-29T15:22:02.540Z" agent="5.0 (Windows NT 10.0; Win64; x64) AppleWebKit/537.36 (KHTML, like Gecko) draw.io/13.9.9 Chrome/85.0.4183.121 Electron/10.1.5 Safari/537.36" etag="lyoDqSZ63sdbkjUffFPB" version="13.9.9" type="device"><diagram id="RXkYxC6cQjv5jpIJ6nsY" name="Страница 1">7Vtbd+I2EP41nNOXcGz5yiPYsO3p5XCatN3tm4MV8NZY1IgA/fUrWxdLsgkEMJd08+BII2lsaz7NNzNAxwrmm095tJj9imKYdoARbzpW2AHANHyX/CskWypxARNM8yRmkyrBY/If5CuZdJXEcKlMxAilOFmowgnKMjjBiizKc7RWp72gVL3rIprCmuBxEqV16V9JjGdU6gOvkv8Ik+mM39l0e3RkHvHJ7E2WsyhGa0lkDTtWkCOEaWu+CWBabB7fF7putGNUPFgOM3zIgq9P4/gp++k3Nx7G1t9Pfy6/jH9+YFpeo3TFXrgD3JToG7wgopY8Nd6yrXD/XSE+8LAsDdUnE0x7sakGSWta/g+NzmBUXoed0Oz4Ztl2yjYo277UdsrroJQE/AnIq9CHYCrpLornAWRDF0VzNU/7E4xyMucV5jghxvsleobpGC0TnKCMTHlGGKO5NKGfJtNiAKMFkc7wPCUdkzTRCqdJBgMBJ0PcWt5qvm9EHdxIIrb1nyCaQ5xvyRQ2CgwGgy0Hik376wpVDpsykwDVY7KI4XgqNFemJg1m7fdY3m3N9NSs5GpIxg0lABj8Ts95Zd2PaHSgGt32rmx0/jyK0bUdhlncLxwn6WUog+pOkb3It5/ZDpWdL0Wn6/BuuJEHwy3vbRL8mc70WZcudE2T9auVRUdeOIZ5Qt4f5vsss0SrfAIPAD2O8inEb22UQyfCWKGHuqX3WJLLcphGOHlVSaXJvOwOY5SUZ5ADyVOB5AANIfTN2SqZBDRFlrVHEd2ZmqISbeK1TwCgs9PrLBdRdiLhCGIhV1shGWBIQ2EptCV2oqNBeTVKiSstH/LlouHxmYLlfInlDP4wROJLLjDgc8h1xFUdQZJlu/KXdON2+EtiExIqFad4PUswfFxE5QFZk2hNPdlncHeWrYHLsrtOzeGZXsM5cR0+8/w+z2sNcsJkA8lAjcDjgAGGtApw0wtkBnyCIUHRfBNmobScw+wOsGFzzygjw21CRmtc2Ls+FypU6NwkEXoflAhdDY/2ZYnQaorEzpZ5GZInClTmk52IFqgbEtkM1UD9Q4XlTk+1PXCuHJbbreZiR1OUAAalqL7UDvgqejWloVChIiUBFOg6IQG8Kmldm7Psa3HWCUxzINHwM3CjRGPqNj2UaGy98KMraplonN1Ec4aMa6R6CeFtApVQxBxfCnxFdejsGdoBBahKz12kUoCXza/mehzQJo7eSKjJdbATNQ0Jdajy2C4g+DV+AxLL+fcACpOnMNcDhXUlPrqJHOpAZuMn51aYTUeR0zuO2fQUyr8wsdmtBc11YhNBsxxGv0FjR4TFpZ+7i7DY0wxv9ur504X9UFNZ+T1+6HgvwBP5Gzndrh449I483bqRRQRyqePdXtm2Hm9oIaF/WKw6lDJaTw1U6GGm2qzOiaX+4trjSvp8qNRceRnjFiMWHUTW9T2F3yasZOvZhYl6pgqZwQ7PLzAS1gLSoRTkAg0RP0jg7KtZEQ1ixQcKphLcVnzWr82Usy7+BEDUe+ofsTlS4kVVscC7Syd1u/eATOD7hyHTaw2Zp9Z2Pg6H+ZrXAPZ5OKym6IwcBl6c39P+H3bmBrNnMzDcr8uHenaUZJN0FcOaYQlqsWrNJc7RPzBAaVFM59Z+SdJUE0Wsej4hVody3Z2X1edJHKe7DlWOVlkM43250OHnqlbu8us5qt0AHf1znKOOVZMNvkeGbZ8q+8KnqunDku8WPadFnQtb9ALf0KhHUXI8M2AlRD3IP+GbGCwcsrgSEa6P1FxAyhdYNfq4uiX/jO4OYi27gRPaywKaANeUBLzHhewqW7qmt69wWfT0GiSvZvKvQlJllvZ3wdImd3RKbbNpI3v/D4do2pd1iE2pwNlKm8LdiBTOaEpVjy5hNiay4o4ikzzu1wEjruQuC6WG1ZrjI93qtyQUh9UvcqzhNw==</diagram></mxfile>
=======
<mxfile host="app.diagrams.net" modified="2021-09-16T07:25:53.794Z" agent="5.0 (Windows)" etag="BPeoRcPtxipkaFYYBqyF" version="15.2.7" type="github">
  <diagram id="RXkYxC6cQjv5jpIJ6nsY" name="Страница 1">
    <mxGraphModel dx="1730" dy="893" grid="1" gridSize="10" guides="1" tooltips="1" connect="1" arrows="1" fold="1" page="1" pageScale="1" pageWidth="1169" pageHeight="827" math="0" shadow="0">
      <root>
        <mxCell id="0" />
        <mxCell id="1" parent="0" />
        <mxCell id="OSpaoH0WrOeUTf2976jx-5" style="edgeStyle=none;orthogonalLoop=1;jettySize=auto;html=1;endArrow=none;" edge="1" parent="1" source="jTPdTnIN6dEd3ZTVsYPK-1" target="jTPdTnIN6dEd3ZTVsYPK-52">
          <mxGeometry relative="1" as="geometry" />
        </mxCell>
        <mxCell id="jTPdTnIN6dEd3ZTVsYPK-1" value="&lt;font style=&quot;font-size: 14px&quot;&gt;посетитель&lt;/font&gt;" style="shape=umlActor;verticalLabelPosition=bottom;verticalAlign=top;html=1;outlineConnect=0;" parent="1" vertex="1">
          <mxGeometry x="130" y="130" width="50" height="90" as="geometry" />
        </mxCell>
        <mxCell id="jTPdTnIN6dEd3ZTVsYPK-16" value="&lt;font style=&quot;font-size: 14px&quot;&gt;тренер&lt;br&gt;&lt;/font&gt;" style="shape=umlActor;verticalLabelPosition=bottom;verticalAlign=top;html=1;outlineConnect=0;" parent="1" vertex="1">
          <mxGeometry x="780" y="100" width="50" height="90" as="geometry" />
        </mxCell>
        <mxCell id="OSpaoH0WrOeUTf2976jx-8" style="edgeStyle=none;orthogonalLoop=1;jettySize=auto;html=1;endArrow=none;" edge="1" parent="1" source="jTPdTnIN6dEd3ZTVsYPK-25" target="jTPdTnIN6dEd3ZTVsYPK-16">
          <mxGeometry relative="1" as="geometry" />
        </mxCell>
        <mxCell id="jTPdTnIN6dEd3ZTVsYPK-25" value="&lt;span style=&quot;font-size: 14px&quot;&gt;видит информацию о записавшемся посетителе&lt;/span&gt;" style="ellipse;whiteSpace=wrap;html=1;" parent="1" vertex="1">
          <mxGeometry x="470" y="139.25" width="198" height="71.5" as="geometry" />
        </mxCell>
        <mxCell id="OSpaoH0WrOeUTf2976jx-7" style="edgeStyle=none;orthogonalLoop=1;jettySize=auto;html=1;endArrow=none;" edge="1" parent="1" source="jTPdTnIN6dEd3ZTVsYPK-27" target="jTPdTnIN6dEd3ZTVsYPK-16">
          <mxGeometry relative="1" as="geometry" />
        </mxCell>
        <mxCell id="jTPdTnIN6dEd3ZTVsYPK-27" value="&lt;span style=&quot;font-size: 14px&quot;&gt;следит за своим расписанием&lt;/span&gt;" style="ellipse;whiteSpace=wrap;html=1;" parent="1" vertex="1">
          <mxGeometry x="489" y="70" width="160" height="60" as="geometry" />
        </mxCell>
        <mxCell id="OSpaoH0WrOeUTf2976jx-4" style="edgeStyle=none;orthogonalLoop=1;jettySize=auto;html=1;endArrow=none;" edge="1" parent="1" source="jTPdTnIN6dEd3ZTVsYPK-30" target="j2f5RlAU4n6Chb1C06js-9">
          <mxGeometry relative="1" as="geometry">
            <mxPoint x="-265" y="411" as="targetPoint" />
          </mxGeometry>
        </mxCell>
        <mxCell id="jTPdTnIN6dEd3ZTVsYPK-30" value="&lt;font style=&quot;font-size: 14px&quot;&gt;администратор&lt;/font&gt;" style="shape=umlActor;verticalLabelPosition=bottom;verticalAlign=top;html=1;outlineConnect=0;" parent="1" vertex="1">
          <mxGeometry x="130" y="466" width="50" height="90" as="geometry" />
        </mxCell>
        <mxCell id="OSpaoH0WrOeUTf2976jx-3" style="edgeStyle=none;orthogonalLoop=1;jettySize=auto;html=1;endArrow=none;" edge="1" parent="1" source="jTPdTnIN6dEd3ZTVsYPK-46" target="jTPdTnIN6dEd3ZTVsYPK-1">
          <mxGeometry relative="1" as="geometry" />
        </mxCell>
        <mxCell id="jTPdTnIN6dEd3ZTVsYPK-46" value="&lt;font style=&quot;font-size: 14px&quot;&gt;следит за сроком абонемента&lt;br&gt;&lt;/font&gt;" style="ellipse;whiteSpace=wrap;html=1;" parent="1" vertex="1">
          <mxGeometry x="255" y="70" width="160" height="60" as="geometry" />
        </mxCell>
        <mxCell id="jTPdTnIN6dEd3ZTVsYPK-50" value="&lt;span style=&quot;font-size: 14px&quot;&gt;просматривает информацию о тренерах&lt;/span&gt;" style="ellipse;whiteSpace=wrap;html=1;" parent="1" vertex="1">
          <mxGeometry x="255" y="260" width="160" height="60" as="geometry" />
        </mxCell>
        <mxCell id="jTPdTnIN6dEd3ZTVsYPK-52" value="&lt;span style=&quot;font-size: 14px&quot;&gt;записывается на тренировки&lt;/span&gt;" style="ellipse;whiteSpace=wrap;html=1;" parent="1" vertex="1">
          <mxGeometry x="255" y="145" width="160" height="60" as="geometry" />
        </mxCell>
        <mxCell id="jTPdTnIN6dEd3ZTVsYPK-54" value="&lt;font style=&quot;font-size: 14px&quot;&gt;продлевает абонементы&lt;br&gt;&lt;/font&gt;" style="ellipse;whiteSpace=wrap;html=1;" parent="1" vertex="1">
          <mxGeometry x="255" y="440" width="160" height="60" as="geometry" />
        </mxCell>
        <mxCell id="jTPdTnIN6dEd3ZTVsYPK-55" value="" style="endArrow=none;html=1;" parent="1" source="jTPdTnIN6dEd3ZTVsYPK-30" edge="1" target="jTPdTnIN6dEd3ZTVsYPK-54">
          <mxGeometry width="50" height="50" relative="1" as="geometry">
            <mxPoint x="-315" y="520" as="sourcePoint" />
            <mxPoint x="-195" y="447" as="targetPoint" />
          </mxGeometry>
        </mxCell>
        <mxCell id="jTPdTnIN6dEd3ZTVsYPK-57" value="&lt;span style=&quot;font-size: 14px&quot;&gt;запрашивает отзывы у посетителей клуба&lt;/span&gt;" style="ellipse;whiteSpace=wrap;html=1;" parent="1" vertex="1">
          <mxGeometry x="250" y="520" width="170" height="71" as="geometry" />
        </mxCell>
        <mxCell id="jTPdTnIN6dEd3ZTVsYPK-58" value="&lt;div&gt;&lt;span style=&quot;font-size: 14px&quot;&gt;ведёт ленту&lt;/span&gt;&lt;/div&gt;&lt;div&gt;&lt;span style=&quot;font-size: 14px&quot;&gt;новостей&lt;/span&gt;&lt;/div&gt;&lt;div&gt;&lt;span style=&quot;font-size: 14px&quot;&gt;&lt;/span&gt;&lt;/div&gt;" style="ellipse;whiteSpace=wrap;html=1;" parent="1" vertex="1">
          <mxGeometry x="440" y="481.5" width="160" height="59" as="geometry" />
        </mxCell>
        <mxCell id="jTPdTnIN6dEd3ZTVsYPK-59" value="" style="endArrow=none;html=1;" parent="1" source="jTPdTnIN6dEd3ZTVsYPK-30" edge="1" target="jTPdTnIN6dEd3ZTVsYPK-58">
          <mxGeometry width="50" height="50" relative="1" as="geometry">
            <mxPoint x="-262" y="601" as="sourcePoint" />
            <mxPoint x="-182" y="601" as="targetPoint" />
          </mxGeometry>
        </mxCell>
        <mxCell id="j2f5RlAU4n6Chb1C06js-1" value="Include" style="endArrow=open;endSize=12;dashed=1;html=1;targetPerimeterSpacing=0;" parent="1" source="jTPdTnIN6dEd3ZTVsYPK-52" target="jTPdTnIN6dEd3ZTVsYPK-50" edge="1">
          <mxGeometry x="-0.4054" width="160" relative="1" as="geometry">
            <mxPoint x="850" y="426" as="sourcePoint" />
            <mxPoint x="520" y="306" as="targetPoint" />
            <Array as="points" />
            <mxPoint as="offset" />
          </mxGeometry>
        </mxCell>
        <mxCell id="j2f5RlAU4n6Chb1C06js-5" value="" style="endArrow=none;html=1;" parent="1" source="jTPdTnIN6dEd3ZTVsYPK-30" edge="1" target="jTPdTnIN6dEd3ZTVsYPK-57">
          <mxGeometry width="50" height="50" relative="1" as="geometry">
            <mxPoint x="-275" y="545" as="sourcePoint" />
            <mxPoint x="-195" y="645" as="targetPoint" />
          </mxGeometry>
        </mxCell>
        <mxCell id="j2f5RlAU4n6Chb1C06js-6" value="" style="endArrow=none;html=1;" parent="1" source="jTPdTnIN6dEd3ZTVsYPK-30" edge="1" target="j2f5RlAU4n6Chb1C06js-7">
          <mxGeometry width="50" height="50" relative="1" as="geometry">
            <mxPoint x="-275" y="545" as="sourcePoint" />
            <mxPoint x="-195" y="745" as="targetPoint" />
          </mxGeometry>
        </mxCell>
        <mxCell id="j2f5RlAU4n6Chb1C06js-7" value="&lt;span style=&quot;font-size: 14px&quot;&gt;составляет расписание групповых тренировок&lt;/span&gt;" style="ellipse;whiteSpace=wrap;html=1;" parent="1" vertex="1">
          <mxGeometry x="240" y="610" width="190" height="60" as="geometry" />
        </mxCell>
        <mxCell id="j2f5RlAU4n6Chb1C06js-9" value="&lt;font style=&quot;font-size: 14px&quot;&gt;выдаёт абонементы новым посетителям&lt;br&gt;&lt;/font&gt;" style="ellipse;whiteSpace=wrap;html=1;" parent="1" vertex="1">
          <mxGeometry x="255" y="370" width="160" height="60" as="geometry" />
        </mxCell>
        <mxCell id="OSpaoH0WrOeUTf2976jx-10" value="&amp;lt;&amp;lt;extend&amp;gt;&amp;gt;" style="html=1;verticalAlign=bottom;labelBackgroundColor=none;endArrow=open;endFill=0;dashed=1;" edge="1" parent="1" source="OSpaoH0WrOeUTf2976jx-11" target="jTPdTnIN6dEd3ZTVsYPK-58">
          <mxGeometry width="160" relative="1" as="geometry">
            <mxPoint x="-51" y="840" as="sourcePoint" />
            <mxPoint x="109" y="840" as="targetPoint" />
          </mxGeometry>
        </mxCell>
        <mxCell id="OSpaoH0WrOeUTf2976jx-11" value="создает акции" style="ellipse;whiteSpace=wrap;html=1;fontSize=14;" vertex="1" parent="1">
          <mxGeometry x="571" y="381" width="160" height="59" as="geometry" />
        </mxCell>
        <mxCell id="OSpaoH0WrOeUTf2976jx-12" value="&lt;div&gt;определяет&lt;br&gt;&lt;/div&gt;&lt;div&gt;скидки&lt;/div&gt;" style="ellipse;whiteSpace=wrap;html=1;fontSize=14;" vertex="1" parent="1">
          <mxGeometry x="571" y="575" width="160" height="59" as="geometry" />
        </mxCell>
        <mxCell id="OSpaoH0WrOeUTf2976jx-13" value="размещает фото" style="ellipse;whiteSpace=wrap;html=1;fontSize=14;" vertex="1" parent="1">
          <mxGeometry x="921" y="516" width="160" height="59" as="geometry" />
        </mxCell>
        <mxCell id="OSpaoH0WrOeUTf2976jx-14" value="размещает видео" style="ellipse;whiteSpace=wrap;html=1;fontSize=14;" vertex="1" parent="1">
          <mxGeometry x="921" y="441" width="160" height="59" as="geometry" />
        </mxCell>
        <mxCell id="OSpaoH0WrOeUTf2976jx-15" value="&amp;lt;&amp;lt;extend&amp;gt;&amp;gt;" style="html=1;verticalAlign=bottom;labelBackgroundColor=none;endArrow=open;endFill=0;dashed=1;" edge="1" parent="1" source="OSpaoH0WrOeUTf2976jx-12" target="jTPdTnIN6dEd3ZTVsYPK-58">
          <mxGeometry width="160" relative="1" as="geometry">
            <mxPoint x="-46.00023321438243" y="870.5231778005113" as="sourcePoint" />
            <mxPoint x="-8.891089988898102" y="799.4844430141059" as="targetPoint" />
          </mxGeometry>
        </mxCell>
        <mxCell id="OSpaoH0WrOeUTf2976jx-16" value="&amp;lt;&amp;lt;extend&amp;gt;&amp;gt;" style="html=1;verticalAlign=bottom;labelBackgroundColor=none;endArrow=open;endFill=0;dashed=1;" edge="1" parent="1" source="OSpaoH0WrOeUTf2976jx-13" target="OSpaoH0WrOeUTf2976jx-19">
          <mxGeometry width="160" relative="1" as="geometry">
            <mxPoint x="76.27163659562666" y="929.3757786510098" as="sourcePoint" />
            <mxPoint x="18.819588759888347" y="799.6187801831754" as="targetPoint" />
          </mxGeometry>
        </mxCell>
        <mxCell id="OSpaoH0WrOeUTf2976jx-17" value="&amp;lt;&amp;lt;extend&amp;gt;&amp;gt;" style="html=1;verticalAlign=bottom;labelBackgroundColor=none;endArrow=open;endFill=0;dashed=1;" edge="1" parent="1" source="OSpaoH0WrOeUTf2976jx-14" target="OSpaoH0WrOeUTf2976jx-19">
          <mxGeometry width="160" relative="1" as="geometry">
            <mxPoint x="149.41198758795463" y="863.8651395036757" as="sourcePoint" />
            <mxPoint x="45.40077730776352" y="796.1740548908656" as="targetPoint" />
          </mxGeometry>
        </mxCell>
        <mxCell id="OSpaoH0WrOeUTf2976jx-19" value="размещение медиа-контента" style="ellipse;whiteSpace=wrap;html=1;fontSize=14;" vertex="1" parent="1">
          <mxGeometry x="681" y="481.5" width="160" height="59" as="geometry" />
        </mxCell>
        <mxCell id="OSpaoH0WrOeUTf2976jx-20" value="&amp;lt;&amp;lt;extend&amp;gt;&amp;gt;" style="html=1;verticalAlign=bottom;labelBackgroundColor=none;endArrow=open;endFill=0;dashed=1;" edge="1" parent="1" source="OSpaoH0WrOeUTf2976jx-19" target="jTPdTnIN6dEd3ZTVsYPK-58">
          <mxGeometry width="160" relative="1" as="geometry">
            <mxPoint x="594.5931795973665" y="425.7682121892417" as="sourcePoint" />
            <mxPoint x="498.0418774405125" y="494.85279239493275" as="targetPoint" />
          </mxGeometry>
        </mxCell>
      </root>
    </mxGraphModel>
  </diagram>
</mxfile>
>>>>>>> 679740476a45543eed9609d9f376787df15d3372
